solid Visualization Toolkit generated SLA File
 facet normal 0.38981448299889476 0.56897765179656368 0.72409191446968446
  outer loop
   vertex -64.422348022460938 -152.93582153320312 335.0322265625
   vertex -2.9931085109710693 368.69580078125 -107.92637634277344
   vertex -458.376220703125 -467.52706909179688 794.31689453125
  endloop
 endfacet
 facet normal 0.38831658422123855 0.5694932285105162 0.72449133404024835
  outer loop
   vertex -64.422348022460938 -152.93582153320312 335.0322265625
   vertex -62.979606628417969 -152.81826782226562 334.16653442382812
   vertex -2.9931085109710693 368.69580078125 -107.92637634277344
  endloop
 endfacet
 facet normal 0.38768833354561283 0.57099178627871205 0.72364779833484694
  outer loop
   vertex -64.422348022460938 -152.93582153320312 335.0322265625
   vertex -458.376220703125 -467.52706909179688 794.31689453125
   vertex -62.979606628417969 -152.81826782226562 334.16653442382812
  endloop
 endfacet
 facet normal 0.39201938291997235 0.56822227055513475 0.72349447451947513
  outer loop
   vertex -62.979606628417969 -152.81826782226562 334.16653442382812
   vertex -60.016368865966797 -152.5416259765625 332.34365844726562
   vertex -2.9931085109710693 368.69580078125 -107.92637634277344
  endloop
 endfacet
 facet normal 0.39300965870036669 0.56592618511439508 0.72475579416110136
  outer loop
   vertex -62.979606628417969 -152.81826782226562 334.16653442382812
   vertex -458.376220703125 -467.52706909179688 794.31689453125
   vertex -60.016368865966797 -152.5416259765625 332.34365844726562
  endloop
 endfacet
 facet normal 0.57054109334462122 0.32405823723703775 0.75463177754713462
  outer loop
   vertex -44.478008270263672 -167.77677917480469 327.6219482421875
   vertex 1424.6190185546875 719.8642578125 -1164.26806640625
   vertex -44.606624603271484 -167.62786865234375 327.65524291992188
  endloop
 endfacet
 facet normal 0.58444034670839384 0.34006356977239066 0.73674028643276401
  outer loop
   vertex -44.478008270263672 -167.77677917480469 327.6219482421875
   vertex -44.606624603271484 -167.62786865234375 327.65524291992188
   vertex -458.376220703125 -467.52706909179688 794.31689453125
  endloop
 endfacet
 facet normal 0.58619348156155549 0.3373888797794164 0.73657718263324778
  outer loop
   vertex -44.478008270263672 -167.77677917480469 327.6219482421875
   vertex -458.376220703125 -467.52706909179688 794.31689453125
   vertex -40.165515899658203 -172.66990661621094 326.43121337890625
  endloop
 endfacet
 facet normal 0.57241496027586014 0.32086509624080656 0.75457716853000756
  outer loop
   vertex -44.478008270263672 -167.77677917480469 327.6219482421875
   vertex -40.165515899658203 -172.66990661621094 326.43121337890625
   vertex 1424.6190185546875 719.8642578125 -1164.26806640625
  endloop
 endfacet
 facet normal 0.56972314252661049 0.36169598579173756 0.73796446712002772
  outer loop
   vertex -458.376220703125 -467.52706909179688 794.31689453125
   vertex -54.462806701660156 -157.63658142089844 330.60220336914062
   vertex -58.765048980712891 -153.59652709960938 331.9434814453125
  endloop
 endfacet
 facet normal 0.57867289715896575 0.34875412415719698 0.73723011263580063
  outer loop
   vertex -458.376220703125 -467.52706909179688 794.31689453125
   vertex -45.655933380126953 -166.47235107421875 327.94403076171875
   vertex -48.563484191894531 -163.44609069824219 328.79464721679688
  endloop
 endfacet
 facet normal 0.58176995521307862 0.34411173492797781 0.73697410612329484
  outer loop
   vertex -458.376220703125 -467.52706909179688 794.31689453125
   vertex -44.606624603271484 -167.62786865234375 327.65524291992188
   vertex -45.655933380126953 -166.47235107421875 327.94403076171875
  endloop
 endfacet
 facet normal 0.56577054481799549 0.36720147746455623 0.73828637097280581
  outer loop
   vertex -458.376220703125 -467.52706909179688 794.31689453125
   vertex -58.765048980712891 -153.59652709960938 331.9434814453125
   vertex -59.825061798095703 -152.54429626464844 332.23245239257812
  endloop
 endfacet
 facet normal 0.36041022376375326 0.5777829990122868 0.73230545311292672
  outer loop
   vertex -458.376220703125 -467.52706909179688 794.31689453125
   vertex -253.14848327636719 1282.9559326171875 -687.80438232421875
   vertex -1668.7066650390625 -1025.9893798828125 1830.61328125
  endloop
 endfacet
 facet normal 0.39342909325038167 0.56676889914895234 0.72386916189437667
  outer loop
   vertex -458.376220703125 -467.52706909179688 794.31689453125
   vertex -2.9931085109710693 368.69580078125 -107.92637634277344
   vertex -253.14848327636719 1282.9559326171875 -687.80438232421875
  endloop
 endfacet
 facet normal 0.59279068818802438 0.3270162312270038 0.7359752608013771
  outer loop
   vertex -458.376220703125 -467.52706909179688 794.31689453125
   vertex 1043.114013671875 -1411.2979736328125 4.2889466285705566
   vertex 451.30828857421875 -734.908447265625 180.41792297363281
  endloop
 endfacet
 facet normal 0.5735007673942194 0.35631252520403189 0.73765727420053795
  outer loop
   vertex -458.376220703125 -467.52706909179688 794.31689453125
   vertex -53.214324951171875 -158.88943481445312 330.23672485351562
   vertex -54.462806701660156 -157.63658142089844 330.60220336914062
  endloop
 endfacet
 facet normal 0.59218002874746645 0.32781181527784881 0.73611291750443519
  outer loop
   vertex -458.376220703125 -467.52706909179688 794.31689453125
   vertex -27.59205436706543 -187.2882080078125 322.96612548828125
   vertex -28.549209594726562 -186.21098327636719 323.25640869140625
  endloop
 endfacet
 facet normal 0.59002791727439485 0.33134496368983041 0.7362591743905299
  outer loop
   vertex -458.376220703125 -467.52706909179688 794.31689453125
   vertex -28.549209594726562 -186.21098327636719 323.25640869140625
   vertex -34.755611419677734 -179.04925537109375 325.007080078125
  endloop
 endfacet
 facet normal 0.59333853472286935 0.32589408375856338 0.73603154102530477
  outer loop
   vertex -458.376220703125 -467.52706909179688 794.31689453125
   vertex -9.8227987289428711 -207.74626159667969 317.70001220703125
   vertex -27.59205436706543 -187.2882080078125 322.96612548828125
  endloop
 endfacet
 facet normal 0.59337177998288726 0.32583527676932933 0.73603077594119293
  outer loop
   vertex -458.376220703125 -467.52706909179688 794.31689453125
   vertex 42.398693084716797 -267.42984008789062 302.02166748046875
   vertex -9.8227987289428711 -207.74626159667969 317.70001220703125
  endloop
 endfacet
 facet normal 0.57527267664112025 0.35375948506371152 0.73750632148993733
  outer loop
   vertex -458.376220703125 -467.52706909179688 794.31689453125
   vertex -48.563484191894531 -163.44609069824219 328.79464721679688
   vertex -53.214324951171875 -158.88943481445312 330.23672485351562
  endloop
 endfacet
 facet normal 0.59279043368976425 0.32708209726842319 0.73594619597657474
  outer loop
   vertex -458.376220703125 -467.52706909179688 794.31689453125
   vertex 451.30828857421875 -734.908447265625 180.41792297363281
   vertex 42.398693084716797 -267.42984008789062 302.02166748046875
  endloop
 endfacet
 facet normal 0.43284617364379513 0.52615305767292275 0.7319884902533369
  outer loop
   vertex -458.376220703125 -467.52706909179688 794.31689453125
   vertex -59.825061798095703 -152.54429626464844 332.23245239257812
   vertex -60.016368865966797 -152.5416259765625 332.34365844726562
  endloop
 endfacet
 facet normal 0.58813679872866598 0.33436348889598716 0.73640760674676609
  outer loop
   vertex -458.376220703125 -467.52706909179688 794.31689453125
   vertex -34.755611419677734 -179.04925537109375 325.007080078125
   vertex -40.165515899658203 -172.66990661621094 326.43121337890625
  endloop
 endfacet
 facet normal 0.56554458330820678 0.23901054072804359 0.7893245756415006
  outer loop
   vertex -458.376220703125 -467.52706909179688 794.31689453125
   vertex -1668.7066650390625 -1025.9893798828125 1830.61328125
   vertex 1043.114013671875 -1411.2979736328125 4.2889466285705566
  endloop
 endfacet
 facet normal 0.42310681251847126 0.55721395398064655 0.71448809275572456
  outer loop
   vertex -60.016368865966797 -152.5416259765625 332.34365844726562
   vertex -59.825061798095703 -152.54429626464844 332.23245239257812
   vertex -2.9931085109710693 368.69580078125 -107.92637634277344
  endloop
 endfacet
 facet normal 0.38470421711550723 0.56812481953860328 0.72748666981448806
  outer loop
   vertex 2725.489501953125 4002.21142578125 -4415.5205078125
   vertex 1871.5048828125 972.23779296875 -1597.689208984375
   vertex 3715.394775390625 2033.19970703125 -3401.311279296875
  endloop
 endfacet
 facet normal 0.39337810201006501 0.56420309059557683 0.72589843740109972
  outer loop
   vertex 2725.489501953125 4002.21142578125 -4415.5205078125
   vertex -253.14848327636719 1282.9559326171875 -687.80438232421875
   vertex 1871.5048828125 972.23779296875 -1597.689208984375
  endloop
 endfacet
 facet normal -0.27232099760861 -0.36203333701026691 -0.89150049756276739
  outer loop
   vertex 2725.489501953125 4002.21142578125 -4415.5205078125
   vertex 4052.441650390625 -650.1409912109375 -2931.56201171875
   vertex -8926.1142578125 4856.4033203125 -1203.2615966796875
  endloop
 endfacet
 facet normal 0.38906100161824009 0.56883353349854315 0.72461020430806355
  outer loop
   vertex 2725.489501953125 4002.21142578125 -4415.5205078125
   vertex 3715.394775390625 2033.19970703125 -3401.311279296875
   vertex 4062.34765625 2211.502197265625 -3727.56982421875
  endloop
 endfacet
 facet normal 0.2402881230335849 0.68272800666601574 0.69003194624803088
  outer loop
   vertex 2725.489501953125 4002.21142578125 -4415.5205078125
   vertex -8926.1142578125 4856.4033203125 -1203.2615966796875
   vertex -253.14848327636719 1282.9559326171875 -687.80438232421875
  endloop
 endfacet
 facet normal 0.38704529483793843 0.56799524693744075 0.72634519286651089
  outer loop
   vertex 2725.489501953125 4002.21142578125 -4415.5205078125
   vertex 4062.34765625 2211.502197265625 -3727.56982421875
   vertex 5545.17333984375 3022.705810546875 -5152.072265625
  endloop
 endfacet
 facet normal -0.35392508823958396 -0.37433413657802106 -0.85709450243656915
  outer loop
   vertex 2725.489501953125 4002.21142578125 -4415.5205078125
   vertex 5545.17333984375 3022.705810546875 -5152.072265625
   vertex 4052.441650390625 -650.1409912109375 -2931.56201171875
  endloop
 endfacet
 facet normal 0.57945170058062012 0.30888082934320421 0.75420710680719638
  outer loop
   vertex -9.8227987289428711 -207.74626159667969 317.70001220703125
   vertex 42.398693084716797 -267.42984008789062 302.02166748046875
   vertex 1424.6190185546875 719.8642578125 -1164.26806640625
  endloop
 endfacet
 facet normal 0.57934531497375119 0.3090591826873097 0.75421576993232997
  outer loop
   vertex -9.8227987289428711 -207.74626159667969 317.70001220703125
   vertex 1424.6190185546875 719.8642578125 -1164.26806640625
   vertex -27.59205436706543 -187.2882080078125 322.96612548828125
  endloop
 endfacet
 facet normal 0.5784005325913939 0.31067326856440763 0.75427776322618678
  outer loop
   vertex -27.59205436706543 -187.2882080078125 322.96612548828125
   vertex 1424.6190185546875 719.8642578125 -1164.26806640625
   vertex -28.549209594726562 -186.21098327636719 323.25640869140625
  endloop
 endfacet
 facet normal 0.57876775967083172 0.3099800910514055 0.7542812628704022
  outer loop
   vertex 451.30828857421875 -734.908447265625 180.41792297363281
   vertex 1043.114013671875 -1411.2979736328125 4.2889466285705566
   vertex 1424.6190185546875 719.8642578125 -1164.26806640625
  endloop
 endfacet
 facet normal 0.57873381453928285 0.31001399647397776 0.75429337389310491
  outer loop
   vertex 451.30828857421875 -734.908447265625 180.41792297363281
   vertex 1424.6190185546875 719.8642578125 -1164.26806640625
   vertex 42.398693084716797 -267.42984008789062 302.02166748046875
  endloop
 endfacet
 facet normal 0.56540339586071575 0.24231402847630379 0.78841798023177778
  outer loop
   vertex 1043.114013671875 -1411.2979736328125 4.2889466285705566
   vertex -1668.7066650390625 -1025.9893798828125 1830.61328125
   vertex -2968.098876953125 -6353.82568359375 4399.92333984375
  endloop
 endfacet
 facet normal 0.50158376405744109 0.22121101209387306 0.83634886008314357
  outer loop
   vertex 1043.114013671875 -1411.2979736328125 4.2889466285705566
   vertex -168.20669555664062 -5305.63720703125 1760.792236328125
   vertex -41.996856689453125 -5911.41845703125 1845.3271484375
  endloop
 endfacet
 facet normal 0.56389299141336058 0.31665224126142327 0.76272934409199777
  outer loop
   vertex 1043.114013671875 -1411.2979736328125 4.2889466285705566
   vertex 1871.5048828125 972.23779296875 -1597.689208984375
   vertex 1807.415283203125 935.36492919921875 -1534.9991455078125
  endloop
 endfacet
 facet normal 0.56387428922911953 0.31666458859731095 0.76273804433425973
  outer loop
   vertex 1043.114013671875 -1411.2979736328125 4.2889466285705566
   vertex 3715.394775390625 2033.19970703125 -3401.311279296875
   vertex 1871.5048828125 972.23779296875 -1597.689208984375
  endloop
 endfacet
 facet normal 0.65519166934902417 0.2093687334217256 0.72587093197139485
  outer loop
   vertex 1043.114013671875 -1411.2979736328125 4.2889466285705566
   vertex 4052.441650390625 -650.1409912109375 -2931.56201171875
   vertex 3715.394775390625 2033.19970703125 -3401.311279296875
  endloop
 endfacet
 facet normal 0.65293153607212384 0.13320844339003177 0.7456111049415115
  outer loop
   vertex 1043.114013671875 -1411.2979736328125 4.2889466285705566
   vertex -2968.098876953125 -6353.82568359375 4399.92333984375
   vertex -168.20669555664062 -5305.63720703125 1760.792236328125
  endloop
 endfacet
 facet normal 0.50295025289273632 0.22061055844029467 0.83568655883638221
  outer loop
   vertex 1043.114013671875 -1411.2979736328125 4.2889466285705566
   vertex -41.996856689453125 -5911.41845703125 1845.3271484375
   vertex 1527.4755859375 -12847.99609375 2731.92236328125
  endloop
 endfacet
 facet normal 0.65753585084710187 0.20102372250802111 0.72611023119068907
  outer loop
   vertex 1043.114013671875 -1411.2979736328125 4.2889466285705566
   vertex 1527.4755859375 -12847.99609375 2731.92236328125
   vertex 4052.441650390625 -650.1409912109375 -2931.56201171875
  endloop
 endfacet
 facet normal 0.56073926574451183 0.31865613496833528 0.76421838730780878
  outer loop
   vertex 1043.114013671875 -1411.2979736328125 4.2889466285705566
   vertex 1807.415283203125 935.36492919921875 -1534.9991455078125
   vertex 1424.6190185546875 719.8642578125 -1164.26806640625
  endloop
 endfacet
 facet normal 0.56146218354702204 0.33933682862221259 0.75472560125334898
  outer loop
   vertex -53.214324951171875 -158.88943481445312 330.23672485351562
   vertex 1424.6190185546875 719.8642578125 -1164.26806640625
   vertex -54.462806701660156 -157.63658142089844 330.60220336914062
  endloop
 endfacet
 facet normal 0.5633637928047025 0.33615240973225147 0.75473359166523168
  outer loop
   vertex -53.214324951171875 -158.88943481445312 330.23672485351562
   vertex -48.563484191894531 -163.44609069824219 328.79464721679688
   vertex 1424.6190185546875 719.8642578125 -1164.26806640625
  endloop
 endfacet
 facet normal 0.26726184079023174 0.63074962322628825 0.72850945172819292
  outer loop
   vertex -1668.7066650390625 -1025.9893798828125 1830.61328125
   vertex -253.14848327636719 1282.9559326171875 -687.80438232421875
   vertex -2317.114501953125 -794.7557373046875 1868.284912109375
  endloop
 endfacet
 facet normal 0.19083395199740999 0.38823988140875354 0.90158316158231755
  outer loop
   vertex -1668.7066650390625 -1025.9893798828125 1830.61328125
   vertex -2317.114501953125 -794.7557373046875 1868.284912109375
   vertex -2968.098876953125 -6353.82568359375 4399.92333984375
  endloop
 endfacet
 facet normal 0.166426986366982 0.69509373219562098 0.69939027850776314
  outer loop
   vertex -2317.114501953125 -794.7557373046875 1868.284912109375
   vertex -253.14848327636719 1282.9559326171875 -687.80438232421875
   vertex -2863.7451171875 1809.9095458984375 -590.30291748046875
  endloop
 endfacet
 facet normal 0.27889990526761543 0.68948896624884404 0.66844581550251014
  outer loop
   vertex -2317.114501953125 -794.7557373046875 1868.284912109375
   vertex -2863.7451171875 1809.9095458984375 -590.30291748046875
   vertex -8926.1142578125 4856.4033203125 -1203.2615966796875
  endloop
 endfacet
 facet normal -0.062021172358146574 0.41966088204263474 0.90555956085865441
  outer loop
   vertex -2317.114501953125 -794.7557373046875 1868.284912109375
   vertex -8926.1142578125 4856.4033203125 -1203.2615966796875
   vertex -2968.098876953125 -6353.82568359375 4399.92333984375
  endloop
 endfacet
 facet normal -0.72641252876248041 -0.043243422459925344 0.68589710924514835
  outer loop
   vertex -8926.1142578125 4856.4033203125 -1203.2615966796875
   vertex -2748.469970703125 -9326.568359375 4445.1044921875
   vertex -2968.098876953125 -6353.82568359375 4399.92333984375
  endloop
 endfacet
 facet normal -0.64650138526635292 -0.50820145611849887 -0.56900548226508696
  outer loop
   vertex -8926.1142578125 4856.4033203125 -1203.2615966796875
   vertex 1527.4755859375 -12847.99609375 2731.92236328125
   vertex -2748.469970703125 -9326.568359375 4445.1044921875
  endloop
 endfacet
 facet normal -0.2711050110971398 -0.35861834027453759 -0.89324966217556201
  outer loop
   vertex -8926.1142578125 4856.4033203125 -1203.2615966796875
   vertex 4052.441650390625 -650.1409912109375 -2931.56201171875
   vertex 1527.4755859375 -12847.99609375 2731.92236328125
  endloop
 endfacet
 facet normal 0.11753311889394544 0.41537380295621545 0.90202581436495088
  outer loop
   vertex -8926.1142578125 4856.4033203125 -1203.2615966796875
   vertex -2863.7451171875 1809.9095458984375 -590.30291748046875
   vertex -253.14848327636719 1282.9559326171875 -687.80438232421875
  endloop
 endfacet
 facet normal 0.39546206144711421 0.566670779772662 0.72283745427851342
  outer loop
   vertex -2.9931085109710693 368.69580078125 -107.92637634277344
   vertex 1424.6190185546875 719.8642578125 -1164.26806640625
   vertex -253.14848327636719 1282.9559326171875 -687.80438232421875
  endloop
 endfacet
 facet normal 0.39519245882045928 0.56712907008163338 0.72262544818168517
  outer loop
   vertex -2.9931085109710693 368.69580078125 -107.92637634277344
   vertex -59.825061798095703 -152.54429626464844 332.23245239257812
   vertex 1424.6190185546875 719.8642578125 -1164.26806640625
  endloop
 endfacet
 facet normal 0.39445164793721826 0.55699215813414216 0.7308677262108948
  outer loop
   vertex -253.14848327636719 1282.9559326171875 -687.80438232421875
   vertex 1807.415283203125 935.36492919921875 -1534.9991455078125
   vertex 1871.5048828125 972.23779296875 -1597.689208984375
  endloop
 endfacet
 facet normal 0.39447134609882539 0.55682567771015601 0.73098394082880247
  outer loop
   vertex -253.14848327636719 1282.9559326171875 -687.80438232421875
   vertex 1424.6190185546875 719.8642578125 -1164.26806640625
   vertex 1807.415283203125 935.36492919921875 -1534.9991455078125
  endloop
 endfacet
 facet normal 0.61016887823949495 0.21035946577979067 0.76383429825113081
  outer loop
   vertex 3715.394775390625 2033.19970703125 -3401.311279296875
   vertex 4052.441650390625 -650.1409912109375 -2931.56201171875
   vertex 4062.34765625 2211.502197265625 -3727.56982421875
  endloop
 endfacet
 facet normal 0.6155023174905343 0.20923382561762943 0.75985400135894055
  outer loop
   vertex 4062.34765625 2211.502197265625 -3727.56982421875
   vertex 4052.441650390625 -650.1409912109375 -2931.56201171875
   vertex 5545.17333984375 3022.705810546875 -5152.072265625
  endloop
 endfacet
 facet normal 0.55431863899332745 0.3511890995477645 0.75458403297672261
  outer loop
   vertex 1424.6190185546875 719.8642578125 -1164.26806640625
   vertex -59.825061798095703 -152.54429626464844 332.23245239257812
   vertex -58.765048980712891 -153.59652709960938 331.9434814453125
  endloop
 endfacet
 facet normal 0.57600381691373581 0.31475200104545864 0.7544208246984484
  outer loop
   vertex 1424.6190185546875 719.8642578125 -1164.26806640625
   vertex -34.755611419677734 -179.04925537109375 325.007080078125
   vertex -28.549209594726562 -186.21098327636719 323.25640869140625
  endloop
 endfacet
 facet normal 0.57393420773195658 0.31827583862544706 0.75451972521754507
  outer loop
   vertex 1424.6190185546875 719.8642578125 -1164.26806640625
   vertex -40.165515899658203 -172.66990661621094 326.43121337890625
   vertex -34.755611419677734 -179.04925537109375 325.007080078125
  endloop
 endfacet
 facet normal 0.56845393315113424 0.3275945745219499 0.75468001207716384
  outer loop
   vertex 1424.6190185546875 719.8642578125 -1164.26806640625
   vertex -45.655933380126953 -166.47235107421875 327.94403076171875
   vertex -44.606624603271484 -167.62786865234375 327.65524291992188
  endloop
 endfacet
 facet normal 0.55852835844967708 0.3442218042507425 0.75469028235818192
  outer loop
   vertex 1424.6190185546875 719.8642578125 -1164.26806640625
   vertex -58.765048980712891 -153.59652709960938 331.9434814453125
   vertex -54.462806701660156 -157.63658142089844 330.60220336914062
  endloop
 endfacet
 facet normal 0.56602522318493476 0.33168713816556561 0.75471788709025689
  outer loop
   vertex 1424.6190185546875 719.8642578125 -1164.26806640625
   vertex -48.563484191894531 -163.44609069824219 328.79464721679688
   vertex -45.655933380126953 -166.47235107421875 327.94403076171875
  endloop
 endfacet
 facet normal 0.61918438268614384 0.23361900583055731 0.74968850888373717
  outer loop
   vertex -2968.098876953125 -6353.82568359375 4399.92333984375
   vertex -41.996856689453125 -5911.41845703125 1845.3271484375
   vertex -168.20669555664062 -5305.63720703125 1760.792236328125
  endloop
 endfacet
 facet normal 0.61865423305163059 0.23576793445991842 0.74945341483497308
  outer loop
   vertex -2968.098876953125 -6353.82568359375 4399.92333984375
   vertex 1527.4755859375 -12847.99609375 2731.92236328125
   vertex -41.996856689453125 -5911.41845703125 1845.3271484375
  endloop
 endfacet
 facet normal 0.40230938870503236 0.043621436648729431 0.91446395556330384
  outer loop
   vertex -2968.098876953125 -6353.82568359375 4399.92333984375
   vertex -2748.469970703125 -9326.568359375 4445.1044921875
   vertex 1527.4755859375 -12847.99609375 2731.92236328125
  endloop
 endfacet
endsolid
